<svg xmlns="http://www.w3.org/2000/svg" version="1.1" xmlns:xlink="http://www.w3.org/1999/xlink" xmlns:svgjs="http://svgjs.dev/svgjs" width="128" height="128" viewBox="0 0 128 128"><g transform="matrix(0.8046875,0,0,0.8046875,12.333870967741937,12.333870967741937)"><svg viewBox="0 0 155 155" data-background-color="#ffffff" preserveAspectRatio="xMidYMid meet" height="128" width="128" xmlns="http://www.w3.org/2000/svg" xmlns:xlink="http://www.w3.org/1999/xlink"><g id="tight-bounds" transform="matrix(1,0,0,1,0.25,0.25)"><svg viewBox="0 0 154.5 154.5" height="154.5" width="154.5"><g><svg></svg></g><g><svg viewBox="0 0 154.5 154.5" height="154.5" width="154.5"><g transform="matrix(1,0,0,1,63.90924162402472,56.5974597)"><svg viewBox="0 0 26.68151675195055 41.3050806" height="41.3050806" width="26.68151675195055"><g><svg viewBox="0 0 26.68151675195055 41.3050806" height="41.3050806" width="26.68151675195055"><g><svg viewBox="0 0 26.68151675195055 41.3050806" height="41.3050806" width="26.68151675195055"><g id="textblocktransform"><svg viewBox="0 0 26.68151675195055 41.3050806" height="41.3050806" width="26.68151675195055" id="textblock"><g><svg viewBox="0 0 26.68151675195055 41.3050806" height="41.3050806" width="26.68151675195055"><g><svg viewBox="0 0 26.68151675195055 41.3050806" height="41.3050806" width="26.68151675195055"><g><svg xmlns="http://www.w3.org/2000/svg" xmlns:xlink="http://www.w3.org/1999/xlink" version="1.1" x="0" y="0" viewBox="21.312 5.59 57.375 88.821" enable-background="new 0 0 100 100" xml:space="preserve" height="41.3050806" width="26.68151675195055" class="icon-icon-0" data-fill-palette-color="accent" id="icon-0"><g fill="#000000" data-fill-palette-color="accent"><path fill="#000000" d="M44.559 19.422L44.517 19.975C44.237 20.014 43.118 20.176 42.174 20.459 41.479 20.668 40.976 21.049 40.794 21.506 40.673 21.807 40.701 22.127 40.873 22.431 41.029 22.703 41.208 23.086 41.372 23.463 41.812 23.182 42.684 22.878 44.578 22.688 45.478 22.596 46.322 22.561 46.814 22.547A3.3 3.3 0 0 1 46.632 21.464 3.367 3.367 0 1 1 53.367 21.464C53.367 21.843 53.301 22.205 53.185 22.546 54.455 22.575 57.419 22.726 58.622 23.472 58.788 23.092 58.968 22.705 59.126 22.431 59.298 22.127 59.326 21.807 59.205 21.506 59.023 21.049 58.52 20.668 57.825 20.459 56.881 20.176 55.763 20.014 55.481 19.975L55.439 19.422H64.805L68.993 15.453V9.561L65.432 5.616 65.407 5.59H34.591L31.006 9.562V15.455L35.194 19.424H44.559z" data-fill-palette-color="accent"></path><path fill="#000000" d="M75.102 30.479L75.074 30.477C74.951 30.467 62.786 29.452 57.938 29.335 57.948 29.219 57.955 29.023 57.965 28.686L58.102 24.748C58.122 24.7 58.191 24.517 58.292 24.267 57.911 23.904 56.007 23.409 52.766 23.384 52.158 24.259 51.147 24.832 50 24.832S47.843 24.259 47.234 23.384C43.992 23.408 42.088 23.904 41.708 24.267 41.809 24.517 41.88 24.701 41.898 24.748L42.035 28.686C42.046 29.023 42.053 29.219 42.062 29.335 37.214 29.451 25.049 30.467 24.926 30.477L24.897 30.479 21.312 34.009 21.367 92.096V92.133L23.977 94.411H76.022L78.632 92.133 78.687 34.044V34.009zM75.393 91.715S61.294 88.5 50 88.449C38.706 88.5 24.607 91.715 24.607 91.715V35.133L26.022 33.881H73.976L75.392 35.133V91.715z" data-fill-palette-color="accent"></path><rect x="33.623" y="42.049" fill="#000000" width="32.349" height="26.141" data-fill-palette-color="accent"></rect></g></svg></g></svg></g></svg></g></svg></g></svg></g></svg></g></svg></g><g><path d="M0 154.5v-154.5h154.5v154.5zM150.775 150.775v-147.05h-147.05v147.05z" fill="#000000" fill-rule="nonzero" stroke="none" stroke-width="1" stroke-linecap="butt" stroke-linejoin="miter" stroke-miterlimit="10" stroke-dasharray="" stroke-dashoffset="0" font-family="none" font-weight="none" font-size="none" text-anchor="none" style="mix-blend-mode: normal" data-fill-palette-color="tertiary"></path></g></svg></g><defs></defs></svg><rect width="154.5" height="154.5" fill="none" stroke="none" visibility="hidden"></rect></g></svg></g></svg>